<svg width="38" height="38" viewBox="0 0 38 38" fill="none" xmlns="http://www.w3.org/2000/svg">
<g clip-path="url(#clip0_6387_3684)">
<path d="M35.4375 4.10454L26.1794 4.10458V1.80017C26.1794 1.16134 25.662 0.643921 25.0232 0.643921C24.3843 0.643921 23.8669 1.16134 23.8669 1.80017V4.104H14.6169V1.80017C14.6169 1.16134 14.0995 0.643921 13.4607 0.643921C12.8218 0.643921 12.3044 1.16134 12.3044 1.80017V4.104H3.0625C1.78542 4.104 0.75 5.13942 0.75 6.4165V35.3228C0.75 36.5998 1.78542 37.6353 3.0625 37.6353H35.4375C36.7146 37.6353 37.75 36.5998 37.75 35.3228V6.4165C37.75 5.13996 36.7146 4.10454 35.4375 4.10454ZM35.4375 35.3228H3.0625V6.4165H12.3044V7.58142C12.3044 8.22021 12.8218 8.73767 13.4607 8.73767C14.0995 8.73767 14.6169 8.22021 14.6169 7.58142V6.41708H23.8669V7.582C23.8669 8.22083 24.3843 8.73825 25.0232 8.73825C25.662 8.73825 26.1794 8.22083 26.1794 7.582V6.41708H35.4375V35.3228ZM27.3438 19.1358H29.6562C30.2945 19.1358 30.8125 18.6178 30.8125 17.9795V15.667C30.8125 15.0288 30.2945 14.5108 29.6562 14.5108H27.3438C26.7055 14.5108 26.1875 15.0288 26.1875 15.667V17.9795C26.1875 18.6178 26.7055 19.1358 27.3438 19.1358ZM27.3438 28.3852H29.6562C30.2945 28.3852 30.8125 27.8678 30.8125 27.229V24.9165C30.8125 24.2782 30.2945 23.7602 29.6562 23.7602H27.3438C26.7055 23.7602 26.1875 24.2782 26.1875 24.9165V27.229C26.1875 27.8684 26.7055 28.3852 27.3438 28.3852ZM20.4062 23.7602H18.0938C17.4555 23.7602 16.9375 24.2782 16.9375 24.9165V27.229C16.9375 27.8678 17.4555 28.3852 18.0938 28.3852H20.4062C21.0445 28.3852 21.5625 27.8678 21.5625 27.229V24.9165C21.5625 24.2788 21.0445 23.7602 20.4062 23.7602ZM20.4062 14.5108H18.0938C17.4555 14.5108 16.9375 15.0288 16.9375 15.667V17.9795C16.9375 18.6178 17.4555 19.1358 18.0938 19.1358H20.4062C21.0445 19.1358 21.5625 18.6178 21.5625 17.9795V15.667C21.5625 15.0282 21.0445 14.5108 20.4062 14.5108ZM11.1562 14.5108H8.84375C8.2055 14.5108 7.6875 15.0288 7.6875 15.667V17.9795C7.6875 18.6178 8.2055 19.1358 8.84375 19.1358H11.1562C11.7945 19.1358 12.3125 18.6178 12.3125 17.9795V15.667C12.3125 15.0282 11.7945 14.5108 11.1562 14.5108ZM11.1562 23.7602H8.84375C8.2055 23.7602 7.6875 24.2782 7.6875 24.9165V27.229C7.6875 27.8678 8.2055 28.3852 8.84375 28.3852H11.1562C11.7945 28.3852 12.3125 27.8678 12.3125 27.229V24.9165C12.3125 24.2788 11.7945 23.7602 11.1562 23.7602Z" fill="black"/>
</g>
<defs>
<clipPath id="clip0_6387_3684">
<rect width="37" height="37" fill="white" transform="translate(0.75 0.640015)"/>
</clipPath>
</defs>
</svg>
