<svg width="38" height="38" viewBox="0 0 38 38" fill="none" xmlns="http://www.w3.org/2000/svg">
<path d="M14.625 27.89V7.84835L33.125 4.76501V24.8067" stroke="black" stroke-width="3.08333" stroke-linecap="round" stroke-linejoin="round"/>
<path d="M10 32.515C12.5543 32.515 14.625 30.4443 14.625 27.89C14.625 25.3357 12.5543 23.265 10 23.265C7.44568 23.265 5.375 25.3357 5.375 27.89C5.375 30.4443 7.44568 32.515 10 32.515Z" stroke="black" stroke-width="3.08333" stroke-linecap="round" stroke-linejoin="round"/>
<path d="M28.5 29.4316C31.0543 29.4316 33.125 27.361 33.125 24.8066C33.125 22.2523 31.0543 20.1816 28.5 20.1816C25.9457 20.1816 23.875 22.2523 23.875 24.8066C23.875 27.361 25.9457 29.4316 28.5 29.4316Z" stroke="black" stroke-width="3.08333" stroke-linecap="round" stroke-linejoin="round"/>
</svg>
