<svg width="38" height="38" viewBox="0 0 38 38" fill="none" xmlns="http://www.w3.org/2000/svg">
  <g clip-path="url(#clip0_6387_3656)">
    <path d="M8.67843 18.64V11.6892C8.69907 10.323 8.98911 8.9742 9.53191 7.72021C10.0747 6.46622 10.8596 5.33165 11.8417 4.38153C12.8237 3.43141 13.9836 2.6844 15.2548 2.18331C16.526 1.68222 17.8837 1.43689 19.2499 1.46139C20.6161 1.43689 21.9737 1.68222 23.2449 2.18331C24.5162 2.6844 25.676 3.43141 26.6581 4.38153C27.6401 5.33165 28.425 6.46622 28.9678 7.72021C29.5106 8.9742 29.8006 10.323 29.8213 11.6892V18.64M24.5356 32.515C25.9374 32.515 27.2819 31.9581 28.2731 30.9668C29.2644 29.9755 29.8213 28.6311 29.8213 27.2292V21.2828M24.5356 32.515C24.5356 33.3911 24.1875 34.2314 23.568 34.8509C22.9484 35.4705 22.1082 35.8185 21.232 35.8185H17.2677C16.3916 35.8185 15.5513 35.4705 14.9317 34.8509C14.3122 34.2314 13.9641 33.3911 13.9641 32.515C13.9641 31.6388 14.3122 30.7985 14.9317 30.179C15.5513 29.5594 16.3916 29.2114 17.2677 29.2114H21.232C22.1082 29.2114 22.9484 29.5594 23.568 30.179C24.1875 30.7985 24.5356 31.6388 24.5356 32.515ZM4.71415 14.6757H7.357C7.70747 14.6757 8.04358 14.8149 8.29139 15.0627C8.53921 15.3105 8.67843 15.6466 8.67843 15.9971V23.9257C8.67843 24.2761 8.53921 24.6122 8.29139 24.8601C8.04358 25.1079 7.70747 25.2471 7.357 25.2471H4.71415C4.01322 25.2471 3.341 24.9687 2.84536 24.473C2.34973 23.9774 2.07129 23.3052 2.07129 22.6042V17.3185C2.07129 16.6176 2.34973 15.9454 2.84536 15.4497C3.341 14.9541 4.01322 14.6757 4.71415 14.6757ZM33.7856 25.2471H31.1427C30.7923 25.2471 30.4561 25.1079 30.2083 24.8601C29.9605 24.6122 29.8213 24.2761 29.8213 23.9257V15.9971C29.8213 15.6466 29.9605 15.3105 30.2083 15.0627C30.4561 14.8149 30.7923 14.6757 31.1427 14.6757H33.7856C34.4865 14.6757 35.1587 14.9541 35.6544 15.4497C36.15 15.9454 36.4284 16.6176 36.4284 17.3185V22.6042C36.4284 23.3052 36.15 23.9774 35.6544 24.473C35.1587 24.9687 34.4865 25.2471 33.7856 25.2471Z" stroke="black" stroke-width="2.64286" stroke-linecap="round" stroke-linejoin="round"/>
  </g>
  <defs>
    <clipPath id="clip0_6387_3656">
      <rect width="37" height="37" fill="white" transform="translate(0.75 0.140015)"/>
    </clipPath>
  </defs>
</svg>
