<svg width="36" height="36" viewBox="0 0 36 36" fill="none" xmlns="http://www.w3.org/2000/svg">
<path d="M16.9375 9.70251H19.25V35.14H16.9375V9.70251ZM7.4707 2.54822C6.77214 3.24679 6.15186 4.00557 5.60986 4.82458C5.06787 5.6436 4.60417 6.51078 4.21875 7.42615C3.83333 8.34151 3.55029 9.27494 3.36963 10.2264C3.18896 11.1779 3.08659 12.1595 3.0625 13.1713C3.0625 14.1589 3.15885 15.1345 3.35156 16.098C3.54427 17.0616 3.83333 18.001 4.21875 18.9164C4.60417 19.8317 5.06185 20.6929 5.5918 21.4999C6.12174 22.3068 6.74805 23.0717 7.4707 23.7943L5.82666 25.4384C4.18864 23.7883 2.93604 21.9154 2.06885 19.8197C1.20166 17.724 0.762044 15.5079 0.75 13.1713C0.75 10.8467 1.18359 8.6366 2.05078 6.54089C2.91797 4.44519 4.17659 2.56628 5.82666 0.904175L7.4707 2.54822ZM30.3608 0.904175C31.9989 2.55424 33.2515 4.42712 34.1187 6.52283C34.9858 8.61853 35.4255 10.8347 35.4375 13.1713C35.4375 15.4958 35.0039 17.7059 34.1367 19.8016C33.2695 21.8973 32.0109 23.7762 30.3608 25.4384L28.7168 23.7943C29.4154 23.0957 30.0356 22.337 30.5776 21.5179C31.1196 20.6989 31.5833 19.8317 31.9688 18.9164C32.3542 18.001 32.6372 17.0676 32.8179 16.1161C32.9985 15.1646 33.1009 14.183 33.125 13.1713C33.125 12.1836 33.0286 11.208 32.8359 10.2445C32.6432 9.28096 32.3542 8.34151 31.9688 7.42615C31.5833 6.51078 31.1257 5.64962 30.5957 4.84265C30.0658 4.03569 29.4395 3.27087 28.7168 2.54822L30.3608 0.904175ZM25.4468 5.81824C26.4224 6.79382 27.1751 7.91394 27.7051 9.17859C28.235 10.4432 28.5 11.7741 28.5 13.1713C28.5 14.5564 28.235 15.8812 27.7051 17.1459C27.1751 18.4105 26.4224 19.5367 25.4468 20.5243L23.8208 18.8983C24.5796 18.1395 25.1577 17.2663 25.5552 16.2787C25.9526 15.2911 26.1574 14.2552 26.1694 13.1713C26.1694 12.0993 25.9707 11.0695 25.5732 10.0819C25.1758 9.09428 24.5916 8.21505 23.8208 7.44421L25.4468 5.81824ZM12.3667 7.44421C11.6079 8.203 11.0238 9.07621 10.6143 10.0638C10.2048 11.0515 10 12.0873 10 13.1713C10 14.2432 10.2048 15.273 10.6143 16.2606C11.0238 17.2483 11.6079 18.1275 12.3667 18.8983L10.7407 20.5243C9.76514 19.5487 9.01237 18.4286 8.48242 17.1639C7.95247 15.8993 7.6875 14.5684 7.6875 13.1713C7.6875 11.7862 7.95247 10.4613 8.48242 9.19666C9.01237 7.93201 9.76514 6.80587 10.7407 5.81824L12.3667 7.44421Z" fill="black"/>
</svg>
